<?xml version="1.0" standalone="no"?>
<!DOCTYPE svg PUBLIC "-//W3C//DTD SVG 20010904//EN"
 "http://www.w3.org/TR/2001/REC-SVG-20010904/DTD/svg10.dtd">
<svg version="1.0" xmlns="http://www.w3.org/2000/svg"
 width="1800.000000pt" height="1200.000000pt" viewBox="0 0 1800.000000 1200.000000"
 preserveAspectRatio="xMidYMid meet">
<metadata>
Created by potrace 1.16, written by Peter Selinger 2001-2019
</metadata>
<g transform="translate(0.000000,1200.000000) scale(0.100000,-0.100000)"
fill="#000000" stroke="none">
<path d="M2230 10060 l0 -520 -66 0 c-57 0 -65 -2 -62 -17 3 -15 16 -19 66
-21 l62 -3 0 -794 0 -795 -66 0 c-57 0 -65 -2 -62 -17 3 -15 16 -19 66 -21
l62 -3 0 -794 0 -795 -65 0 c-51 0 -65 -3 -65 -15 0 -12 14 -15 65 -15 l65 0
0 -795 0 -794 -62 -3 c-50 -2 -63 -6 -66 -20 -3 -16 5 -18 62 -18 l66 0 0
-795 0 -794 -62 -3 c-50 -2 -63 -6 -66 -21 -3 -15 5 -17 62 -17 l66 0 0 -755
0 -755 185 0 185 0 0 -66 c0 -57 2 -65 18 -62 14 3 18 16 20 66 l3 62 879 0
879 0 3 -62 c2 -50 6 -63 21 -66 15 -3 17 5 17 62 l0 66 885 0 885 0 0 -65 c0
-58 2 -65 20 -65 18 0 20 7 20 65 l0 65 885 0 885 0 0 -66 c0 -57 2 -65 18
-62 14 3 18 16 20 66 l3 62 879 0 879 0 3 -62 c2 -50 6 -63 21 -66 15 -3 17 5
17 62 l0 66 885 0 885 0 0 -65 c0 -58 2 -65 20 -65 18 0 20 7 20 65 l0 65 885
0 885 0 0 -65 c0 -51 3 -65 15 -65 12 0 15 14 15 65 l0 65 885 0 885 0 0 -65
c0 -58 2 -65 20 -65 18 0 20 7 20 65 l0 65 470 0 470 0 0 4550 0 4550 -6995 0
-6995 0 0 -520z m13950 -4030 l0 -4510 -2450 0 c-2443 0 -2450 0 -2450 20 0
16 -7 20 -35 20 -28 0 -35 -4 -35 -20 0 -20 -7 -20 -4470 -20 l-4470 0 0 4510
0 4510 6955 0 6955 0 0 -4510z"/>
<path d="M11210 10475 c0 -35 1 -36 33 -33 28 3 32 6 32 33 0 27 -4 30 -32 33
-32 3 -33 2 -33 -33z"/>
<path d="M11210 10304 c0 -34 1 -35 33 -32 28 3 32 7 35 36 3 31 2 32 -32 32
-35 0 -36 -1 -36 -36z"/>
<path d="M11210 10146 c0 -35 1 -36 36 -36 34 0 35 1 32 33 -3 28 -7 32 -35
35 -32 3 -33 2 -33 -32z"/>
<path d="M15380 10136 c-1107 -270 -1774 -577 -2379 -1096 -176 -151 -231
-206 -410 -410 -114 -129 -231 -269 -259 -310 -29 -41 -65 -93 -81 -115 -254
-358 -551 -898 -896 -1627 -88 -187 -100 -208 -123 -208 -22 0 -24 -3 -20 -42
4 -38 -7 -67 -83 -228 -48 -102 -217 -439 -377 -750 l-289 -565 -294 -416
-294 -415 -260 -252 c-258 -250 -262 -254 -505 -421 -323 -222 -595 -363 -981
-512 -1036 -398 -2399 -626 -4753 -794 -274 -19 -503 -38 -507 -41 -11 -6 -12
-41 -1 -47 8 -6 132 2 692 43 2603 192 4081 487 5115 1021 213 110 285 154
482 292 292 205 391 287 578 478 170 174 262 281 392 454 306 408 536 813 952
1677 130 270 134 277 165 280 27 3 31 7 34 36 2 24 -1 32 -12 32 -9 0 -16 2
-16 4 0 3 118 251 263 553 247 514 277 571 487 923 123 206 249 413 280 460
32 47 166 216 299 375 242 289 243 290 464 479 222 188 287 236 513 379 342
216 801 415 1299 563 88 26 288 79 445 118 278 69 285 72 285 96 0 15 -6 25
-15 26 -8 1 -94 -17 -190 -40z"/>
<path d="M11210 9974 c0 -34 1 -35 33 -32 28 3 32 7 35 36 3 31 2 32 -32 32
-35 0 -36 -1 -36 -36z"/>
<path d="M11210 9816 c0 -35 1 -36 36 -36 34 0 35 1 32 33 -3 28 -7 32 -35 35
-32 3 -33 2 -33 -32z"/>
<path d="M11210 9645 c0 -35 1 -36 33 -33 28 3 32 6 32 33 0 27 -4 30 -32 33
-32 3 -33 2 -33 -33z"/>
<path d="M11210 9480 c0 -28 3 -30 35 -30 32 0 35 2 35 30 0 28 -3 30 -35 30
-32 0 -35 -2 -35 -30z"/>
<path d="M11210 9315 c0 -35 1 -36 33 -33 28 3 32 6 32 33 0 27 -4 30 -32 33
-32 3 -33 2 -33 -33z"/>
<path d="M11210 9150 c0 -28 3 -30 35 -30 32 0 35 2 35 30 0 28 -3 30 -35 30
-32 0 -35 -2 -35 -30z"/>
<path d="M11210 8986 c0 -35 1 -36 36 -36 34 0 35 1 32 33 -3 28 -7 32 -35 35
-32 3 -33 2 -33 -32z"/>
<path d="M11210 8814 c0 -34 1 -35 33 -32 28 3 32 7 35 36 3 31 2 32 -32 32
-35 0 -36 -1 -36 -36z"/>
<path d="M11210 8656 c0 -35 1 -36 36 -36 34 0 35 1 32 33 -3 28 -7 32 -35 35
-32 3 -33 2 -33 -32z"/>
<path d="M11210 8484 c0 -34 1 -35 33 -32 28 3 32 7 35 36 3 31 2 32 -32 32
-35 0 -36 -1 -36 -36z"/>
<path d="M11210 8320 c0 -28 3 -30 35 -30 32 0 35 2 35 30 0 28 -3 30 -35 30
-32 0 -35 -2 -35 -30z"/>
<path d="M11210 8155 c0 -35 1 -36 33 -33 28 3 32 6 32 33 0 27 -4 30 -32 33
-32 3 -33 2 -33 -33z"/>
<path d="M11210 7990 c0 -28 3 -30 35 -30 32 0 35 2 35 30 0 28 -3 30 -35 30
-32 0 -35 -2 -35 -30z"/>
<path d="M11210 7825 c0 -35 1 -36 33 -33 28 3 32 6 32 33 0 27 -4 30 -32 33
-32 3 -33 2 -33 -33z"/>
<path d="M11210 7654 c0 -34 1 -35 33 -32 28 3 32 7 35 36 3 31 2 32 -32 32
-35 0 -36 -1 -36 -36z"/>
<path d="M11210 7496 c0 -35 1 -36 36 -36 34 0 35 1 32 33 -3 28 -7 32 -35 35
-32 3 -33 2 -33 -32z"/>
<path d="M11210 7324 c0 -34 1 -35 33 -32 28 3 32 7 35 36 3 31 2 32 -32 32
-35 0 -36 -1 -36 -36z"/>
<path d="M11210 7166 c0 -35 1 -36 36 -36 34 0 35 1 32 33 -3 28 -7 32 -35 35
-32 3 -33 2 -33 -32z"/>
<path d="M11210 6995 c0 -35 1 -36 33 -33 28 3 32 6 32 33 0 27 -4 30 -32 33
-32 3 -33 2 -33 -33z"/>
<path d="M11210 6830 c0 -28 3 -30 35 -30 32 0 35 2 35 30 0 28 -3 30 -35 30
-32 0 -35 -2 -35 -30z"/>
<path d="M11210 6665 c0 -35 1 -36 33 -33 28 3 32 6 32 33 0 27 -4 30 -32 33
-32 3 -33 2 -33 -33z"/>
<path d="M11210 6500 c0 -28 3 -30 35 -30 32 0 35 2 35 30 0 28 -3 30 -35 30
-32 0 -35 -2 -35 -30z"/>
<path d="M11210 6006 c0 -35 1 -36 36 -36 34 0 35 1 32 33 -3 28 -7 32 -35 35
-32 3 -33 2 -33 -32z"/>
<path d="M11210 5834 c0 -34 1 -35 33 -32 28 3 32 7 35 36 3 31 2 32 -32 32
-35 0 -36 -1 -36 -36z"/>
<path d="M11210 5676 c0 -35 1 -36 36 -36 34 0 35 1 32 33 -3 28 -7 32 -35 35
-32 3 -33 2 -33 -32z"/>
<path d="M11210 5505 c0 -35 1 -36 33 -33 28 3 32 6 32 33 0 27 -4 30 -32 33
-32 3 -33 2 -33 -33z"/>
<path d="M11210 5340 c0 -28 3 -30 35 -30 32 0 35 2 35 30 0 28 -3 30 -35 30
-32 0 -35 -2 -35 -30z"/>
<path d="M11210 5175 c0 -35 1 -36 33 -33 28 3 32 6 32 33 0 27 -4 30 -32 33
-32 3 -33 2 -33 -33z"/>
<path d="M11210 5010 c0 -28 3 -30 35 -30 32 0 35 2 35 30 0 28 -3 30 -35 30
-32 0 -35 -2 -35 -30z"/>
<path d="M11210 4846 c0 -35 1 -36 36 -36 34 0 35 1 32 33 -3 28 -7 32 -35 35
-32 3 -33 2 -33 -32z"/>
<path d="M11210 4674 c0 -34 1 -35 33 -32 28 3 32 7 35 36 3 31 2 32 -32 32
-35 0 -36 -1 -36 -36z"/>
<path d="M11210 4516 c0 -35 1 -36 36 -36 34 0 35 1 32 33 -3 28 -7 32 -35 35
-32 3 -33 2 -33 -32z"/>
<path d="M11210 4344 c0 -34 1 -35 33 -32 28 3 32 7 35 36 3 31 2 32 -32 32
-35 0 -36 -1 -36 -36z"/>
<path d="M11210 4180 c0 -28 3 -30 35 -30 32 0 35 2 35 30 0 28 -3 30 -35 30
-32 0 -35 -2 -35 -30z"/>
<path d="M11210 4015 c0 -35 1 -36 33 -33 28 3 32 6 32 33 0 27 -4 30 -32 33
-32 3 -33 2 -33 -33z"/>
<path d="M11210 3850 c0 -28 3 -30 35 -30 32 0 35 2 35 30 0 28 -3 30 -35 30
-32 0 -35 -2 -35 -30z"/>
<path d="M11210 3685 c0 -35 1 -36 33 -33 28 3 32 6 32 33 0 27 -4 30 -32 33
-32 3 -33 2 -33 -33z"/>
<path d="M11210 3514 c0 -34 1 -35 33 -32 28 3 32 7 35 36 3 31 2 32 -32 32
-35 0 -36 -1 -36 -36z"/>
<path d="M11210 3356 c0 -35 1 -36 36 -36 34 0 35 1 32 33 -3 28 -7 32 -35 35
-32 3 -33 2 -33 -32z"/>
<path d="M11210 3184 c0 -34 1 -35 33 -32 28 3 32 7 35 36 3 31 2 32 -32 32
-35 0 -36 -1 -36 -36z"/>
<path d="M11210 3026 c0 -35 1 -36 36 -36 34 0 35 1 32 33 -3 28 -7 32 -35 35
-32 3 -33 2 -33 -32z"/>
<path d="M11210 2855 c0 -35 1 -36 33 -33 28 3 32 6 32 33 0 27 -4 30 -32 33
-32 3 -33 2 -33 -33z"/>
<path d="M11210 2690 c0 -28 3 -30 35 -30 32 0 35 2 35 30 0 28 -3 30 -35 30
-32 0 -35 -2 -35 -30z"/>
<path d="M11210 2525 c0 -35 1 -36 33 -33 28 3 32 6 32 33 0 27 -4 30 -32 33
-32 3 -33 2 -33 -33z"/>
<path d="M11210 2360 c0 -28 3 -30 35 -30 32 0 35 2 35 30 0 28 -3 30 -35 30
-32 0 -35 -2 -35 -30z"/>
<path d="M11210 2196 c0 -35 1 -36 36 -36 34 0 35 1 32 33 -3 28 -7 32 -35 35
-32 3 -33 2 -33 -32z"/>
<path d="M11210 2024 c0 -34 1 -35 33 -32 28 3 32 7 35 36 3 31 2 32 -32 32
-35 0 -36 -1 -36 -36z"/>
<path d="M11210 1866 c0 -35 1 -36 36 -36 34 0 35 1 32 33 -3 28 -7 32 -35 35
-32 3 -33 2 -33 -32z"/>
<path d="M11210 1694 c0 -34 1 -35 33 -32 28 3 32 7 35 36 3 31 2 32 -32 32
-35 0 -36 -1 -36 -36z"/>
<path d="M1505 9661 c-22 -4 -31 -13 -33 -30 -4 -22 -1 -24 32 -18 l36 6 0
-110 0 -109 -30 0 c-23 0 -30 -4 -30 -20 0 -19 7 -20 90 -20 83 0 90 1 90 20
0 16 -7 20 -35 20 l-35 0 0 135 0 135 -27 -1 c-16 -1 -41 -4 -58 -8z"/>
<path d="M1740 9591 l0 -80 48 5 c53 6 77 -6 87 -47 13 -55 -42 -85 -122 -65
-29 7 -33 5 -33 -13 0 -44 105 -56 161 -18 88 59 46 188 -63 191 -34 1 -38 3
-38 28 0 26 2 27 63 30 54 3 62 5 62 23 0 18 -8 20 -82 23 l-83 3 0 -80z"/>
<path d="M1120 9490 c0 -19 7 -20 135 -20 128 0 135 1 135 20 0 19 -7 20 -135
20 -128 0 -135 -1 -135 -20z"/>
<path d="M1478 8043 c-12 -3 -18 -14 -18 -33 l0 -29 35 15 c51 21 82 18 100
-10 21 -32 12 -49 -72 -140 -34 -38 -63 -77 -63 -87 0 -17 9 -19 101 -19 90 0
100 2 97 18 -3 14 -16 18 -66 20 -34 2 -62 6 -62 10 0 4 25 32 55 62 81 80 93
142 33 184 -21 15 -98 20 -140 9z"/>
<path d="M1771 8034 c-33 -24 -51 -74 -51 -146 0 -73 22 -126 60 -145 100 -50
182 63 150 206 -16 69 -46 101 -97 101 -21 0 -49 -7 -62 -16z m93 -46 c31 -51
27 -171 -7 -205 -25 -26 -63 -9 -77 33 -15 44 -9 156 9 178 19 23 58 20 75 -6z"/>
<path d="M1120 7870 c0 -19 7 -20 135 -20 128 0 135 1 135 20 0 19 -7 20 -135
20 -128 0 -135 -1 -135 -20z"/>
<path d="M480 7476 c-73 -20 -155 -68 -158 -93 -4 -28 -2 -28 72 1 139 56 264
54 392 -4 l64 -29 0 28 c0 21 -8 32 -37 48 -104 58 -232 77 -333 49z"/>
<path d="M354 7243 c-29 -60 -26 -157 8 -215 63 -107 250 -134 349 -51 67 56
89 173 49 261 -17 38 -22 42 -55 42 l-36 0 21 -28 c45 -61 45 -159 -1 -208
-43 -46 -153 -58 -227 -24 -73 33 -94 126 -47 214 l24 46 -33 0 c-29 0 -36 -5
-52 -37z"/>
<path d="M393 6738 c-66 -32 -40 -128 35 -128 24 0 62 41 62 67 0 46 -56 81
-97 61z m55 -57 c4 -29 -15 -43 -40 -30 -18 10 -24 39 -11 53 15 15 48 1 51
-23z"/>
<path d="M320 6397 c0 -23 11 -31 78 -64 75 -37 80 -38 187 -38 106 0 113 1
188 37 67 32 77 40 77 64 0 21 -3 25 -17 19 -122 -52 -150 -59 -248 -59 -88 0
-108 3 -165 28 -99 42 -100 42 -100 13z"/>
<path d="M1478 6413 c-12 -3 -18 -14 -18 -33 l0 -29 35 15 c51 21 82 18 100
-10 21 -32 12 -49 -72 -140 -34 -38 -63 -77 -63 -87 0 -17 9 -19 101 -19 90 0
100 2 97 18 -3 14 -16 18 -66 20 -34 2 -62 6 -62 10 0 4 25 32 55 62 81 80 93
142 33 184 -21 15 -98 20 -140 9z"/>
<path d="M1740 6341 l0 -80 48 5 c53 6 77 -6 87 -47 13 -55 -42 -85 -122 -65
-29 7 -33 5 -33 -13 0 -44 105 -56 161 -18 88 59 46 188 -63 191 -34 1 -38 3
-38 28 0 26 2 27 63 30 54 3 62 5 62 23 0 18 -8 20 -82 23 l-83 3 0 -80z"/>
<path d="M1120 6240 c0 -19 7 -20 135 -20 128 0 135 1 135 20 0 19 -7 20 -135
20 -128 0 -135 -1 -135 -20z"/>
<path d="M669 6006 c-27 -13 -38 -71 -20 -104 7 -13 7 -22 -1 -30 -23 -23 1
-39 89 -56 48 -10 99 -20 111 -23 20 -5 23 -2 20 18 -3 20 -13 26 -73 39 -38
9 -80 22 -91 28 -29 15 -40 60 -20 80 14 15 56 11 164 -15 20 -5 23 -2 20 18
-2 19 -12 26 -53 35 -93 20 -122 22 -146 10z"/>
<path d="M451 5748 c-15 -42 -14 -102 3 -141 31 -76 150 -139 228 -122 76 17
103 60 96 155 -5 64 -10 74 -47 85 -22 7 -23 5 -15 -27 15 -59 10 -119 -11
-134 -51 -37 -170 -1 -200 62 -19 40 -19 55 0 101 17 41 18 38 -17 47 -23 5
-27 2 -37 -26z"/>
<path d="M452 5409 l3 -33 101 -21 c55 -11 112 -28 126 -37 52 -34 62 -122 15
-133 -12 -3 -66 3 -121 15 -127 26 -126 26 -126 -10 0 -26 4 -30 38 -36 20 -3
68 -12 105 -20 100 -20 134 -18 162 11 32 31 34 95 5 143 -16 26 -17 32 -5 32
10 0 15 10 15 29 l0 28 -142 27 c-79 15 -151 29 -161 32 -16 5 -18 1 -15 -27z"/>
<path d="M503 5053 c-58 -11 -80 -96 -43 -165 16 -31 17 -36 4 -31 -12 5 -15
-1 -12 -28 l3 -33 140 -27 c180 -35 175 -35 175 0 0 28 -2 29 -87 45 -138 26
-166 42 -187 109 -3 9 -1 28 4 42 12 31 34 32 165 5 53 -11 99 -20 102 -20 2
0 3 15 1 32 l-3 33 -95 17 c-131 24 -142 25 -167 21z"/>
<path d="M1483 4783 c-7 -2 -13 -14 -13 -24 0 -18 5 -20 44 -14 53 8 83 0 91
-24 10 -33 -5 -50 -51 -57 -34 -5 -44 -10 -44 -25 0 -15 7 -19 35 -19 40 0 80
-32 71 -57 -3 -8 -6 -18 -6 -23 0 -13 -67 -32 -90 -26 -11 3 -29 9 -40 12 -16
4 -20 1 -20 -19 0 -19 6 -26 31 -31 55 -11 93 -7 127 14 54 33 64 97 21 136
-18 16 -18 17 1 42 33 41 22 84 -27 110 -21 12 -106 15 -130 5z"/>
<path d="M1771 4774 c-33 -24 -51 -74 -51 -146 0 -73 22 -126 60 -145 100 -50
182 63 150 206 -16 69 -46 101 -97 101 -21 0 -49 -7 -62 -16z m93 -46 c31 -51
27 -171 -7 -205 -25 -26 -63 -9 -77 33 -15 44 -9 156 9 178 19 23 58 20 75 -6z"/>
<path d="M450 4689 l0 -50 -45 7 c-45 6 -45 6 -45 -24 0 -29 3 -31 45 -38 38
-5 45 -10 45 -29 0 -30 40 -42 47 -14 6 22 17 23 103 4 90 -20 122 -19 149 6
19 17 21 29 19 77 -3 50 -6 57 -25 60 -21 3 -23 -1 -23 -43 0 -27 -5 -47 -12
-50 -7 -3 -56 3 -108 13 l-95 17 -3 50 c-3 48 -13 65 -39 65 -9 0 -13 -17 -13
-51z"/>
<path d="M1120 4610 c0 -19 7 -20 135 -20 128 0 135 1 135 20 0 19 -7 20 -135
20 -128 0 -135 -1 -135 -20z"/>
<path d="M1483 3153 c-7 -2 -13 -14 -13 -24 0 -18 5 -20 44 -14 53 8 83 0 91
-24 10 -33 -5 -50 -51 -57 -34 -5 -44 -10 -44 -25 0 -15 7 -19 35 -19 40 0 80
-32 71 -57 -3 -8 -6 -18 -6 -23 0 -13 -67 -32 -90 -26 -11 3 -29 9 -40 12 -16
4 -20 1 -20 -19 0 -19 6 -26 31 -31 55 -11 93 -7 127 14 54 33 64 97 21 136
-18 16 -18 17 1 42 33 41 22 84 -27 110 -21 12 -106 15 -130 5z"/>
<path d="M1740 3081 l0 -80 48 5 c53 6 77 -6 87 -47 13 -55 -42 -85 -122 -65
-29 7 -33 5 -33 -13 0 -44 105 -56 161 -18 88 59 46 188 -63 191 -34 1 -38 3
-38 28 0 26 2 27 63 30 54 3 62 5 62 23 0 18 -8 20 -82 23 l-83 3 0 -80z"/>
<path d="M1120 2980 c0 -19 7 -20 135 -20 128 0 135 1 135 20 0 19 -7 20 -135
20 -128 0 -135 -1 -135 -20z"/>
<path d="M2200 1121 l0 -80 48 5 c53 6 77 -6 87 -47 13 -55 -42 -85 -122 -65
-29 7 -33 5 -33 -13 0 -44 105 -56 161 -18 88 59 46 188 -63 191 -34 1 -38 3
-38 28 0 26 2 27 63 30 54 3 62 5 62 23 0 18 -8 20 -82 23 l-83 3 0 -80z"/>
<path d="M2597 1193 c-4 -3 -7 -39 -7 -79 l0 -73 50 6 c59 7 90 -13 90 -57 0
-56 -47 -78 -122 -57 -25 7 -28 5 -28 -17 0 -16 7 -26 23 -30 62 -16 146 5
166 42 18 34 13 97 -9 125 -22 27 -81 50 -106 40 -10 -4 -14 3 -14 26 l0 31
60 0 c57 0 60 1 60 25 0 25 -1 25 -78 25 -43 0 -82 -3 -85 -7z"/>
<path d="M2891 1184 c-33 -24 -51 -74 -51 -146 0 -73 22 -126 60 -145 100 -50
182 63 150 206 -16 69 -46 101 -97 101 -21 0 -49 -7 -62 -16z m93 -46 c31 -51
27 -171 -7 -205 -25 -26 -63 -9 -77 33 -15 44 -9 156 9 178 19 23 58 20 75 -6z"/>
<path d="M4007 1193 c-4 -3 -7 -39 -7 -79 l0 -73 50 6 c59 7 90 -13 90 -57 0
-56 -47 -78 -122 -57 -25 7 -28 5 -28 -17 0 -16 7 -26 23 -30 62 -16 146 5
166 42 18 34 13 97 -9 125 -22 27 -81 50 -106 40 -10 -4 -14 3 -14 26 l0 31
60 0 c57 0 60 1 60 25 0 25 -1 25 -78 25 -43 0 -82 -3 -85 -7z"/>
<path d="M4384 1185 c-11 -26 7 -35 72 -35 35 0 64 -4 64 -9 0 -5 -20 -61 -45
-125 -25 -64 -45 -119 -45 -121 0 -3 11 -5 24 -5 22 0 30 14 81 145 31 79 54
149 50 155 -3 6 -46 10 -101 10 -73 0 -96 -3 -100 -15z"/>
<path d="M4670 1121 l0 -80 48 5 c53 6 77 -6 87 -47 13 -55 -42 -85 -122 -65
-29 7 -33 5 -33 -13 0 -44 105 -56 161 -18 88 59 46 188 -63 191 -34 1 -38 3
-38 28 0 26 2 27 63 30 54 3 62 5 62 23 0 18 -8 20 -82 23 l-83 3 0 -80z"/>
<path d="M5848 1177 c-35 -28 -58 -84 -58 -142 0 -125 99 -196 179 -129 27 23
31 32 31 78 0 62 -17 90 -65 106 -28 9 -41 9 -65 -3 -35 -18 -35 -18 -16 28
17 39 46 51 101 41 30 -6 35 -4 35 12 0 39 -98 46 -142 9z m98 -152 c39 -60
-31 -139 -80 -89 -18 18 -21 66 -6 95 16 28 65 25 86 -6z"/>
<path d="M6241 1184 c-33 -24 -51 -74 -51 -146 0 -73 22 -126 60 -145 100 -50
182 63 150 206 -16 69 -46 101 -97 101 -21 0 -49 -7 -62 -16z m93 -46 c31 -51
27 -171 -7 -205 -25 -26 -63 -9 -77 33 -15 44 -9 156 9 178 19 23 58 20 75 -6z"/>
<path d="M6507 1189 c-68 -40 -72 -228 -6 -284 52 -43 120 -27 151 35 21 43
23 148 4 194 -8 18 -24 41 -37 50 -26 18 -85 21 -112 5z m93 -44 c18 -22 25
-135 10 -179 -13 -42 -52 -59 -77 -34 -35 36 -39 155 -7 206 17 25 55 29 74 7z"/>
<path d="M7657 1180 c-43 -34 -60 -77 -60 -147 1 -104 48 -159 128 -149 53 6
85 43 85 96 0 87 -59 133 -137 106 -32 -10 -30 18 3 51 22 22 31 25 70 19 43
-5 45 -4 42 17 -3 19 -10 22 -54 25 -39 2 -56 -2 -77 -18z m93 -149 c15 -29
12 -77 -6 -95 -49 -50 -119 29 -80 89 21 31 70 34 86 6z"/>
<path d="M8018 1193 c-12 -3 -18 -14 -18 -33 l0 -29 35 15 c51 21 82 18 100
-10 21 -32 12 -49 -72 -140 -34 -38 -63 -77 -63 -87 0 -17 9 -19 101 -19 90 0
100 2 97 18 -3 14 -16 18 -66 20 -34 2 -62 6 -62 10 0 4 25 32 55 62 81 80 93
142 33 184 -21 15 -98 20 -140 9z"/>
<path d="M8280 1121 l0 -80 48 5 c53 6 77 -6 87 -47 13 -55 -42 -85 -122 -65
-29 7 -33 5 -33 -13 0 -44 105 -56 161 -18 88 59 46 188 -63 191 -34 1 -38 3
-38 28 0 26 2 27 63 30 54 3 62 5 62 23 0 18 -8 20 -82 23 l-83 3 0 -80z"/>
<path d="M9467 1180 c-43 -34 -60 -77 -60 -147 1 -104 48 -159 128 -149 53 6
85 43 85 96 0 87 -59 133 -137 106 -32 -10 -30 18 3 51 22 22 31 25 70 19 43
-5 45 -4 42 17 -3 19 -10 22 -54 25 -39 2 -56 -2 -77 -18z m93 -149 c15 -29
12 -77 -6 -95 -49 -50 -119 29 -80 89 21 31 70 34 86 6z"/>
<path d="M9820 1121 l0 -80 48 5 c53 6 77 -6 87 -47 13 -55 -42 -85 -122 -65
-29 7 -33 5 -33 -13 0 -44 105 -56 161 -18 88 59 46 188 -63 191 -34 1 -38 3
-38 28 0 26 2 27 63 30 54 3 62 5 62 23 0 18 -8 20 -82 23 l-83 3 0 -80z"/>
<path d="M10117 1189 c-68 -40 -72 -228 -6 -284 52 -43 120 -27 151 35 21 43
23 148 4 194 -8 18 -24 41 -37 50 -26 18 -85 21 -112 5z m93 -44 c18 -22 25
-135 10 -179 -13 -42 -52 -59 -77 -34 -35 36 -39 155 -7 206 17 25 55 29 74 7z"/>
<path d="M11268 1177 c-35 -28 -58 -84 -58 -142 0 -125 99 -196 179 -129 27
23 31 32 31 78 0 62 -17 90 -65 106 -28 9 -41 9 -65 -3 -35 -18 -35 -18 -16
28 17 39 46 51 101 41 30 -6 35 -4 35 12 0 39 -98 46 -142 9z m98 -152 c39
-60 -31 -139 -80 -89 -18 18 -21 66 -6 95 16 28 65 25 86 -6z"/>
<path d="M11610 1175 c0 -24 2 -25 71 -25 64 0 70 -2 64 -17 -4 -10 -17 -45
-30 -78 -13 -33 -32 -84 -44 -112 l-21 -53 28 0 c26 0 30 7 80 138 28 76 52
146 52 155 0 15 -12 17 -100 17 l-100 0 0 -25z"/>
<path d="M11890 1121 l0 -80 48 5 c53 6 77 -6 87 -47 13 -55 -42 -85 -122 -65
-29 7 -33 5 -33 -13 0 -44 105 -56 161 -18 88 59 46 188 -63 191 -34 1 -38 3
-38 28 0 26 2 27 63 30 54 3 62 5 62 23 0 18 -8 20 -82 23 l-83 3 0 -80z"/>
<path d="M13020 1175 c0 -24 2 -25 71 -25 64 0 70 -2 64 -17 -4 -10 -17 -45
-30 -78 -13 -33 -32 -84 -44 -112 l-21 -53 28 0 c26 0 30 7 80 138 28 76 52
146 52 155 0 15 -12 17 -100 17 l-100 0 0 -25z"/>
<path d="M13467 1189 c-68 -40 -72 -228 -6 -284 52 -43 120 -27 151 35 21 43
23 148 4 194 -8 18 -24 41 -37 50 -26 18 -85 21 -112 5z m93 -44 c18 -22 25
-135 10 -179 -13 -42 -52 -59 -77 -34 -35 36 -39 155 -7 206 17 25 55 29 74 7z"/>
<path d="M13731 1184 c-33 -24 -51 -74 -51 -146 0 -73 22 -126 60 -145 100
-50 182 63 150 206 -16 69 -46 101 -97 101 -21 0 -49 -7 -62 -16z m93 -46 c31
-51 27 -171 -7 -205 -25 -26 -63 -9 -77 33 -15 44 -9 156 9 178 19 23 58 20
75 -6z"/>
<path d="M14824 1185 c-11 -26 7 -35 72 -35 35 0 64 -4 64 -9 0 -5 -20 -61
-45 -125 -25 -64 -45 -119 -45 -121 0 -3 11 -5 24 -5 22 0 30 14 81 145 31 79
54 149 50 155 -3 6 -46 10 -101 10 -73 0 -96 -3 -100 -15z"/>
<path d="M15243 1190 c-13 -6 -23 -18 -23 -30 0 -23 1 -24 50 -9 50 15 88 5
96 -25 8 -34 -15 -72 -85 -141 -88 -86 -85 -95 39 -95 93 0 100 1 100 20 0 18
-7 20 -67 20 l-67 0 50 53 c28 28 58 63 68 77 44 67 -4 141 -92 139 -26 0 -57
-4 -69 -9z"/>
<path d="M15507 1193 c-4 -3 -7 -39 -7 -79 l0 -73 50 6 c59 7 90 -13 90 -57 0
-56 -47 -78 -122 -57 -25 7 -28 5 -28 -17 0 -16 7 -26 23 -30 62 -16 146 5
166 42 18 34 13 97 -9 125 -22 27 -81 50 -106 40 -10 -4 -14 3 -14 26 l0 31
60 0 c57 0 60 1 60 25 0 25 -1 25 -78 25 -43 0 -82 -3 -85 -7z"/>
<path d="M2460 920 c0 -25 4 -30 25 -30 21 0 25 5 25 30 0 25 -4 30 -25 30
-21 0 -25 -5 -25 -30z"/>
<path d="M4267 944 c-4 -4 -7 -18 -7 -31 0 -19 5 -23 31 -23 27 0 30 3 27 28
-3 26 -34 43 -51 26z"/>
<path d="M6070 920 c0 -25 4 -30 25 -30 21 0 25 5 25 30 0 25 -4 30 -25 30
-21 0 -25 -5 -25 -30z"/>
<path d="M7877 944 c-4 -4 -7 -18 -7 -31 0 -19 5 -23 31 -23 27 0 30 3 27 28
-3 26 -34 43 -51 26z"/>
<path d="M9687 944 c-4 -4 -7 -18 -7 -31 0 -19 5 -23 31 -23 27 0 30 3 27 28
-3 26 -34 43 -51 26z"/>
<path d="M11490 920 c0 -25 4 -30 25 -30 21 0 25 5 25 30 0 25 -4 30 -25 30
-21 0 -25 -5 -25 -30z"/>
<path d="M13297 944 c-4 -4 -7 -18 -7 -31 0 -19 5 -23 31 -23 27 0 30 3 27 28
-3 26 -34 43 -51 26z"/>
<path d="M15100 920 c0 -25 4 -30 25 -30 21 0 25 5 25 30 0 25 -4 30 -25 30
-21 0 -25 -5 -25 -30z"/>
<path d="M13713 643 c-16 -3 -23 -12 -23 -27 0 -21 3 -22 57 -18 45 4 59 1 69
-13 24 -33 -1 -65 -53 -65 -26 0 -33 -4 -33 -19 0 -14 10 -20 41 -24 44 -6 59
-19 59 -53 0 -42 -54 -60 -122 -41 -25 7 -28 5 -28 -17 0 -57 158 -46 190 13
17 32 12 79 -11 102 -18 18 -19 22 -6 37 20 22 23 40 14 75 -12 44 -76 65
-154 50z"/>
<path d="M5920 335 l0 -225 30 0 c21 0 30 5 30 16 0 13 5 12 26 -5 33 -26 95
-28 135 -4 60 36 89 158 55 236 -24 57 -61 82 -121 82 -38 0 -59 -5 -74 -19
l-21 -19 0 81 0 82 -30 0 -30 0 0 -225z m195 31 c65 -65 30 -216 -50 -216 -34
0 -72 39 -80 84 -22 113 63 199 130 132z"/>
<path d="M7494 550 c-31 -12 -54 -49 -54 -87 0 -29 -3 -33 -25 -33 -20 0 -25
-5 -25 -25 0 -20 5 -25 25 -25 l25 0 0 -135 0 -135 30 0 30 0 0 134 0 135 43
3 c35 2 43 7 45 26 3 20 -1 22 -42 22 -39 0 -46 3 -46 19 0 41 11 51 56 51 42
0 44 1 44 30 0 29 -2 30 -42 29 -24 0 -53 -4 -64 -9z"/>
<path d="M8030 478 l0 -81 -21 19 c-15 14 -36 19 -74 19 -60 0 -97 -25 -121
-82 -34 -78 -5 -200 55 -236 40 -24 102 -22 135 4 21 17 26 18 26 5 0 -11 9
-16 30 -16 l30 0 0 225 0 225 -30 0 -30 0 0 -82z m-35 -112 c65 -65 30 -216
-50 -216 -34 0 -72 39 -80 84 -22 113 63 199 130 132z"/>
<path d="M10474 546 c-3 -8 -4 -25 -2 -38 2 -18 9 -23 33 -23 28 0 30 3 30 35
0 31 -3 35 -28 38 -17 2 -29 -2 -33 -12z"/>
<path d="M10960 335 l0 -225 30 0 30 0 0 225 0 225 -30 0 -30 0 0 -225z"/>
<path d="M4550 326 l0 -216 30 0 30 0 2 167 3 167 88 -167 88 -167 45 0 44 0
0 215 0 215 -35 0 -35 0 0 -167 0 -168 -88 165 -87 165 -42 3 -43 3 0 -215z"/>
<path d="M8860 475 c0 -33 -4 -45 -15 -45 -9 0 -15 -9 -15 -25 0 -16 6 -25 15
-25 12 0 15 -16 15 -82 0 -88 12 -154 29 -171 6 -6 40 -13 76 -15 64 -4 65 -4
65 21 0 24 -4 26 -47 29 l-48 3 -3 108 -3 107 51 0 c47 0 50 2 50 25 0 23 -3
25 -50 25 l-50 0 0 45 c0 45 0 45 -35 45 -35 0 -35 0 -35 -45z"/>
<path d="M10250 475 c0 -38 -3 -45 -20 -45 -14 0 -20 -7 -20 -21 0 -12 8 -23
20 -26 18 -5 20 -14 20 -115 0 -102 1 -110 25 -133 20 -21 34 -25 85 -25 58 0
61 1 58 22 -2 19 -10 24 -43 26 -61 5 -65 12 -65 123 l0 98 53 3 c45 3 52 6
55 26 3 21 0 22 -52 22 l-56 0 0 45 c0 43 -1 45 -30 45 -29 0 -30 -2 -30 -45z"/>
<path d="M5460 433 c-8 -3 -23 -12 -32 -21 -16 -14 -18 -13 -18 1 0 12 -9 17
-30 17 l-30 0 0 -160 0 -160 30 0 30 0 0 109 c0 93 3 112 20 134 26 33 65 42
96 22 23 -15 24 -20 24 -140 l0 -125 35 0 35 0 0 111 c0 61 4 119 10 129 22
41 108 45 124 5 3 -9 6 -68 6 -131 l0 -114 31 0 31 0 -4 136 -3 136 -33 29
c-45 40 -99 40 -144 0 l-32 -29 -27 29 c-21 23 -35 29 -66 28 -21 0 -45 -3
-53 -6z"/>
<path d="M6347 419 c-104 -55 -102 -245 3 -299 44 -22 128 -27 179 -9 25 9 31
16 31 41 0 25 -3 29 -17 23 -104 -43 -192 -21 -206 51 l-4 24 118 0 119 0 0
40 c0 120 -115 186 -223 129z m116 -40 c23 -10 47 -46 47 -69 0 -6 -39 -10
-89 -10 l-90 0 11 31 c7 20 22 36 42 45 38 16 49 17 79 3z"/>
<path d="M6760 433 c-8 -3 -23 -12 -32 -21 -16 -14 -18 -13 -18 1 0 12 -9 17
-30 17 l-30 0 0 -160 0 -160 30 0 30 0 0 103 c0 84 4 108 20 135 19 31 34 37
88 32 18 -1 22 4 22 29 0 28 -3 31 -32 30 -18 0 -40 -3 -48 -6z"/>
<path d="M7130 421 c-52 -28 -74 -72 -74 -151 0 -107 55 -170 149 -170 89 0
145 66 145 170 0 47 -5 74 -20 98 -42 68 -129 91 -200 53z m105 -41 c35 -13
59 -71 52 -127 -9 -81 -56 -118 -116 -93 -39 16 -55 57 -49 127 4 46 10 61 32
80 30 26 43 28 81 13z"/>
<path d="M8588 424 c-33 -17 -48 -43 -48 -81 0 -54 30 -78 127 -103 56 -14 75
-46 43 -72 -27 -22 -73 -23 -129 -3 l-41 14 0 -30 c0 -39 33 -52 124 -47 62 3
71 7 97 36 58 65 29 128 -73 157 -72 20 -88 30 -88 56 0 36 63 46 148 23 19
-6 22 -3 22 24 0 25 -5 30 -31 36 -53 10 -123 6 -151 -10z"/>
<path d="M9390 433 c-8 -3 -23 -12 -32 -21 -16 -14 -18 -13 -18 1 0 12 -9 17
-30 17 l-30 0 0 -215 0 -215 30 0 30 0 0 71 0 70 26 -20 c33 -26 95 -28 135
-4 84 50 93 220 16 292 -26 23 -96 37 -127 24z m85 -67 c65 -65 30 -216 -50
-216 -34 0 -72 39 -80 84 -22 113 63 199 130 132z"/>
<path d="M9683 428 c-24 -8 -33 -17 -33 -33 0 -32 6 -34 55 -17 55 18 109 9
130 -21 23 -32 19 -37 -27 -37 -98 0 -163 -36 -174 -97 -18 -97 92 -159 184
-103 26 16 32 17 32 5 0 -10 10 -15 30 -15 l30 0 -1 108 c0 127 -12 168 -58
199 -37 25 -109 30 -168 11z m162 -190 c-14 -62 -42 -88 -96 -88 -24 0 -59 34
-59 58 1 40 38 58 128 61 33 1 33 0 27 -31z"/>
<path d="M10120 433 c-8 -3 -23 -12 -32 -21 -16 -14 -18 -13 -18 1 0 12 -9 17
-30 17 l-30 0 0 -160 0 -160 30 0 30 0 0 103 c0 84 4 108 20 135 19 31 34 37
88 32 18 -1 22 4 22 29 0 28 -3 31 -32 30 -18 0 -40 -3 -48 -6z"/>
<path d="M10703 421 c-54 -25 -83 -79 -83 -153 0 -101 65 -168 162 -168 68 0
98 14 98 46 0 23 -3 25 -22 20 -95 -28 -139 -15 -164 50 -32 84 9 168 82 168
22 1 54 -3 72 -7 30 -8 32 -7 32 17 0 19 -7 29 -26 36 -40 16 -105 11 -151 -9z"/>
<path d="M11177 419 c-104 -55 -102 -245 3 -299 44 -22 128 -27 179 -9 25 9
31 16 31 41 0 25 -3 29 -17 23 -104 -43 -192 -21 -206 51 l-4 24 118 0 119 0
0 40 c0 120 -115 186 -223 129z m116 -40 c23 -10 47 -46 47 -69 0 -6 -39 -10
-89 -10 l-90 0 11 31 c7 20 22 36 42 45 38 16 49 17 79 3z"/>
<path d="M11508 424 c-33 -17 -48 -43 -48 -81 0 -54 30 -78 127 -103 56 -14
75 -46 43 -72 -27 -22 -73 -23 -129 -3 l-41 14 0 -30 c0 -39 33 -52 124 -47
62 3 71 7 97 36 58 65 29 128 -73 157 -72 20 -88 30 -88 56 0 36 63 46 148 23
19 -6 22 -3 22 24 0 25 -5 30 -31 36 -53 10 -123 6 -151 -10z"/>
<path d="M12080 433 c-8 -3 -23 -12 -32 -21 -16 -14 -18 -13 -18 1 0 12 -9 17
-30 17 l-30 0 0 -215 0 -215 30 0 30 0 0 71 0 70 26 -20 c33 -26 95 -28 135
-4 84 50 93 220 16 292 -26 23 -96 37 -127 24z m85 -67 c65 -65 30 -216 -50
-216 -34 0 -72 39 -80 84 -22 113 63 199 130 132z"/>
<path d="M12397 419 c-104 -55 -102 -245 3 -299 44 -22 128 -27 179 -9 25 9
31 16 31 41 0 25 -3 29 -17 23 -104 -43 -192 -21 -206 51 l-4 24 118 0 119 0
0 40 c0 120 -115 186 -223 129z m116 -40 c23 -10 47 -46 47 -69 0 -6 -39 -10
-89 -10 l-90 0 11 31 c7 20 22 36 42 45 38 16 49 17 79 3z"/>
<path d="M12810 433 c-8 -3 -23 -12 -32 -21 -16 -14 -18 -13 -18 1 0 12 -9 17
-30 17 l-30 0 0 -160 0 -160 30 0 30 0 0 103 c0 84 4 108 20 135 19 31 34 37
88 32 18 -1 22 4 22 29 0 28 -3 31 -32 30 -18 0 -40 -3 -48 -6z"/>
<path d="M13216 419 c-21 -17 -26 -18 -26 -5 0 12 -10 16 -35 16 l-35 0 0
-160 0 -160 35 0 35 0 0 114 c0 96 3 117 19 137 21 26 82 32 104 11 8 -9 13
-55 15 -137 l4 -125 28 0 28 0 4 115 c3 99 6 117 23 134 31 31 67 35 96 13 23
-19 24 -27 28 -141 l3 -121 29 0 29 0 0 106 c0 122 -13 177 -48 205 -41 32
-124 20 -161 -24 -10 -13 -16 -11 -41 14 -36 36 -94 40 -134 8z"/>
<path d="M4972 308 c5 -139 18 -177 68 -198 38 -16 105 -8 131 16 17 16 19 16
19 1 0 -12 9 -17 30 -17 l30 0 0 160 0 160 -30 0 -30 0 0 -105 c0 -114 -9
-147 -47 -164 -35 -16 -60 -14 -83 9 -18 18 -20 33 -20 140 l0 120 -36 0 -36
0 4 -122z"/>
<path d="M8190 315 c0 -126 12 -171 51 -199 33 -23 100 -21 133 5 21 17 26 18
26 5 0 -11 9 -16 30 -16 l30 0 0 160 0 160 -30 0 -30 0 0 -111 c0 -61 -5 -119
-11 -130 -13 -26 -55 -41 -90 -34 -38 9 -49 47 -49 171 l0 104 -30 0 -30 0 0
-115z"/>
<path d="M10470 270 l0 -160 35 0 35 0 0 160 0 160 -35 0 -35 0 0 -160z"/>
</g>
</svg>
