<?xml version="1.0" encoding="UTF-8" standalone="no"?>
<!-- Created with Inkscape (http://www.inkscape.org/) -->

<svg
   version="1.1"
   id="svg2"
   xml:space="preserve"
   width="576"
   height="384"
   viewBox="0 0 576 384"
   sodipodi:docname="tnuc_new.eps"
   xmlns:inkscape="http://www.inkscape.org/namespaces/inkscape"
   xmlns:sodipodi="http://sodipodi.sourceforge.net/DTD/sodipodi-0.dtd"
   xmlns="http://www.w3.org/2000/svg"
   xmlns:svg="http://www.w3.org/2000/svg"><defs
     id="defs6"><clipPath
       clipPathUnits="userSpaceOnUse"
       id="clipPath180"><path
         d="M 540,360 H 3888 V 2534 H 540 Z"
         id="path178" /></clipPath></defs><sodipodi:namedview
     id="namedview4"
     pagecolor="#ffffff"
     bordercolor="#666666"
     borderopacity="1.0"
     inkscape:pageshadow="2"
     inkscape:pageopacity="0.0"
     inkscape:pagecheckerboard="0" /><g
     id="g8"
     inkscape:groupmode="layer"
     inkscape:label="ink_ext_XXXXXX"
     transform="matrix(1.3333333,0,0,-1.3333333,0,384)"><g
       id="g10"
       transform="scale(0.1)"><path
         d="M 0,0 H 4320 V 2880 H 0 Z"
         style="fill:#ffffff;fill-opacity:1;fill-rule:nonzero;stroke:none"
         id="path12" /><path
         d="M 540,360 H 3888 V 2534.4 H 540 Z"
         style="fill:#ffffff;fill-opacity:1;fill-rule:nonzero;stroke:none"
         id="path14" /><path
         d="M 628.207,360 V 325"
         style="fill:#000000;fill-opacity:1;fill-rule:nonzero;stroke:none"
         id="path16" /><path
         d="M 628.207,360 V 325"
         style="fill:none;stroke:#000000;stroke-width:8;stroke-linecap:butt;stroke-linejoin:round;stroke-miterlimit:10;stroke-dasharray:none;stroke-opacity:1"
         id="path18" /><g
         id="g20"
         transform="scale(10)"><text
           transform="matrix(1,0,0,-1,51.6879,21.4063)"
           style="font-variant:normal;font-weight:normal;font-size:10px;font-family:Arial;-inkscape-font-specification:Arial;writing-mode:lr-tb;fill:#000000;fill-opacity:1;fill-rule:nonzero;stroke:none"
           id="text24"><tspan
             x="0 6.362112 9.5410194 15.903131"
             y="0"
             sodipodi:role="line"
             id="tspan22">5.50</tspan></text></g><path
         d="M 1061.7,360 V 325"
         style="fill:#000000;fill-opacity:1;fill-rule:nonzero;stroke:none"
         id="path26" /><path
         d="M 1061.7,360 V 325"
         style="fill:none;stroke:#000000;stroke-width:8;stroke-linecap:butt;stroke-linejoin:round;stroke-miterlimit:10;stroke-dasharray:none;stroke-opacity:1"
         id="path28" /><g
         id="g30"
         transform="scale(10)"><text
           transform="matrix(1,0,0,-1,95.0367,21.4063)"
           style="font-variant:normal;font-weight:normal;font-size:10px;font-family:Arial;-inkscape-font-specification:Arial;writing-mode:lr-tb;fill:#000000;fill-opacity:1;fill-rule:nonzero;stroke:none"
           id="text34"><tspan
             x="0 6.3625026 9.5410128 15.903516"
             y="0"
             sodipodi:role="line"
             id="tspan32">5.75</tspan></text></g><path
         d="M 1495.19,360 V 325"
         style="fill:#000000;fill-opacity:1;fill-rule:nonzero;stroke:none"
         id="path36" /><path
         d="M 1495.19,360 V 325"
         style="fill:none;stroke:#000000;stroke-width:8;stroke-linecap:butt;stroke-linejoin:round;stroke-miterlimit:10;stroke-dasharray:none;stroke-opacity:1"
         id="path38" /><g
         id="g40"
         transform="scale(10)"><text
           transform="matrix(1,0,0,-1,138.386,21.4063)"
           style="font-variant:normal;font-weight:normal;font-size:10px;font-family:Arial;-inkscape-font-specification:Arial;writing-mode:lr-tb;fill:#000000;fill-opacity:1;fill-rule:nonzero;stroke:none"
           id="text44"><tspan
             x="0 6.362112 9.5410128 15.903125"
             y="0"
             sodipodi:role="line"
             id="tspan42">6.00</tspan></text></g><path
         d="M 1928.68,360 V 325"
         style="fill:#000000;fill-opacity:1;fill-rule:nonzero;stroke:none"
         id="path46" /><path
         d="M 1928.68,360 V 325"
         style="fill:none;stroke:#000000;stroke-width:8;stroke-linecap:butt;stroke-linejoin:round;stroke-miterlimit:10;stroke-dasharray:none;stroke-opacity:1"
         id="path48" /><g
         id="g50"
         transform="scale(10)"><text
           transform="matrix(1,0,0,-1,181.735,21.4063)"
           style="font-variant:normal;font-weight:normal;font-size:10px;font-family:Arial;-inkscape-font-specification:Arial;writing-mode:lr-tb;fill:#000000;fill-opacity:1;fill-rule:nonzero;stroke:none"
           id="text54"><tspan
             x="0 6.362112 9.5410128 15.903125"
             y="0"
             sodipodi:role="line"
             id="tspan52">6.25</tspan></text></g><path
         d="M 2362.17,360 V 325"
         style="fill:#000000;fill-opacity:1;fill-rule:nonzero;stroke:none"
         id="path56" /><path
         d="M 2362.17,360 V 325"
         style="fill:none;stroke:#000000;stroke-width:8;stroke-linecap:butt;stroke-linejoin:round;stroke-miterlimit:10;stroke-dasharray:none;stroke-opacity:1"
         id="path58" /><g
         id="g60"
         transform="scale(10)"><text
           transform="matrix(1,0,0,-1,225.084,21.4063)"
           style="font-variant:normal;font-weight:normal;font-size:10px;font-family:Arial;-inkscape-font-specification:Arial;writing-mode:lr-tb;fill:#000000;fill-opacity:1;fill-rule:nonzero;stroke:none"
           id="text64"><tspan
             x="0 6.3624902 9.5410013 15.903491"
             y="0"
             sodipodi:role="line"
             id="tspan62">6.50</tspan></text></g><path
         d="M 2795.66,360 V 325"
         style="fill:#000000;fill-opacity:1;fill-rule:nonzero;stroke:none"
         id="path66" /><path
         d="M 2795.66,360 V 325"
         style="fill:none;stroke:#000000;stroke-width:8;stroke-linecap:butt;stroke-linejoin:round;stroke-miterlimit:10;stroke-dasharray:none;stroke-opacity:1"
         id="path68" /><g
         id="g70"
         transform="scale(10)"><text
           transform="matrix(1,0,0,-1,268.433,21.4063)"
           style="font-variant:normal;font-weight:normal;font-size:10px;font-family:Arial;-inkscape-font-specification:Arial;writing-mode:lr-tb;fill:#000000;fill-opacity:1;fill-rule:nonzero;stroke:none"
           id="text74"><tspan
             x="0 6.3620996 9.5410013 15.903101"
             y="0"
             sodipodi:role="line"
             id="tspan72">6.75</tspan></text></g><path
         d="M 3229.15,360 V 325"
         style="fill:#000000;fill-opacity:1;fill-rule:nonzero;stroke:none"
         id="path76" /><path
         d="M 3229.15,360 V 325"
         style="fill:none;stroke:#000000;stroke-width:8;stroke-linecap:butt;stroke-linejoin:round;stroke-miterlimit:10;stroke-dasharray:none;stroke-opacity:1"
         id="path78" /><g
         id="g80"
         transform="scale(10)"><text
           transform="matrix(1,0,0,-1,311.782,21.4063)"
           style="font-variant:normal;font-weight:normal;font-size:10px;font-family:Arial;-inkscape-font-specification:Arial;writing-mode:lr-tb;fill:#000000;fill-opacity:1;fill-rule:nonzero;stroke:none"
           id="text84"><tspan
             x="0 6.3624902 9.5410013 15.903491"
             y="0"
             sodipodi:role="line"
             id="tspan82">7.00</tspan></text></g><path
         d="M 3662.64,360 V 325"
         style="fill:#000000;fill-opacity:1;fill-rule:nonzero;stroke:none"
         id="path86" /><path
         d="M 3662.64,360 V 325"
         style="fill:none;stroke:#000000;stroke-width:8;stroke-linecap:butt;stroke-linejoin:round;stroke-miterlimit:10;stroke-dasharray:none;stroke-opacity:1"
         id="path88" /><g
         id="g90"
         transform="scale(10)"><text
           transform="matrix(1,0,0,-1,355.131,21.4063)"
           style="font-variant:normal;font-weight:normal;font-size:10px;font-family:Arial;-inkscape-font-specification:Arial;writing-mode:lr-tb;fill:#000000;fill-opacity:1;fill-rule:nonzero;stroke:none"
           id="text94"><tspan
             x="0 6.3620996 9.5410013 15.903101"
             y="0"
             sodipodi:role="line"
             id="tspan92">7.25</tspan></text><text
           transform="matrix(1,0,0,-1,107.9,2.6954)"
           style="font-variant:normal;font-weight:normal;font-size:14px;font-family:Arial;-inkscape-font-specification:Arial;writing-mode:lr-tb;fill:#000000;fill-opacity:1;fill-rule:nonzero;stroke:none"
           id="text98"><tspan
             x="0 10.472659 19.345705 32.983597 41.870312 50.483597 56.239452 60.689449 69.255074 74.183586 78.633972 87.520691 96.39373 103.68774 109.1772 113.6272 122.51392 131.09322 136.84908 142.33815 146.228 153.92526 157.81473 166.42799 173.722 178.172 187.05872 195.672 201.42784 205.87823"
             y="0"
             sodipodi:role="line"
             id="tspan96">Number of dust particles per m</tspan></text><text
           transform="matrix(1,0,0,-1,327.55,8.05478)"
           style="font-variant:normal;font-weight:normal;font-size:9.8px;font-family:Arial;-inkscape-font-specification:Arial;writing-mode:lr-tb;fill:#000000;fill-opacity:1;fill-rule:nonzero;stroke:none"
           id="text102"><tspan
             x="0"
             y="0"
             id="tspan100">3</tspan></text></g><path
         d="M 540,721.91 H 505"
         style="fill:#000000;fill-opacity:1;fill-rule:nonzero;stroke:none"
         id="path104" /><path
         d="M 540,721.91 H 505"
         style="fill:none;stroke:#000000;stroke-width:8;stroke-linecap:butt;stroke-linejoin:round;stroke-miterlimit:10;stroke-dasharray:none;stroke-opacity:1"
         id="path106" /><g
         id="g108"
         transform="scale(10)"><text
           transform="matrix(1,0,0,-1,25.9063,68.3941)"
           style="font-variant:normal;font-weight:normal;font-size:10px;font-family:Arial;-inkscape-font-specification:Arial;writing-mode:lr-tb;fill:#000000;fill-opacity:1;fill-rule:nonzero;stroke:none"
           id="text112"><tspan
             x="0 8.3789043 14.741404"
             y="0"
             sodipodi:role="line"
             id="tspan110">−35</tspan></text></g><path
         d="M 540,1112.79 H 505"
         style="fill:#000000;fill-opacity:1;fill-rule:nonzero;stroke:none"
         id="path114" /><path
         d="M 540,1112.79 H 505"
         style="fill:none;stroke:#000000;stroke-width:8;stroke-linecap:butt;stroke-linejoin:round;stroke-miterlimit:10;stroke-dasharray:none;stroke-opacity:1"
         id="path116" /><g
         id="g118"
         transform="scale(10)"><text
           transform="matrix(1,0,0,-1,25.9063,107.482)"
           style="font-variant:normal;font-weight:normal;font-size:10px;font-family:Arial;-inkscape-font-specification:Arial;writing-mode:lr-tb;fill:#000000;fill-opacity:1;fill-rule:nonzero;stroke:none"
           id="text122"><tspan
             x="0 8.3789043 14.741404"
             y="0"
             sodipodi:role="line"
             id="tspan120">−30</tspan></text></g><path
         d="M 540,1503.67 H 505"
         style="fill:#000000;fill-opacity:1;fill-rule:nonzero;stroke:none"
         id="path124" /><path
         d="M 540,1503.67 H 505"
         style="fill:none;stroke:#000000;stroke-width:8;stroke-linecap:butt;stroke-linejoin:round;stroke-miterlimit:10;stroke-dasharray:none;stroke-opacity:1"
         id="path126" /><g
         id="g128"
         transform="scale(10)"><text
           transform="matrix(1,0,0,-1,25.9063,146.57)"
           style="font-variant:normal;font-weight:normal;font-size:10px;font-family:Arial;-inkscape-font-specification:Arial;writing-mode:lr-tb;fill:#000000;fill-opacity:1;fill-rule:nonzero;stroke:none"
           id="text132"><tspan
             x="0 8.3789043 14.741404"
             y="0"
             sodipodi:role="line"
             id="tspan130">−25</tspan></text></g><path
         d="M 540,1894.55 H 505"
         style="fill:#000000;fill-opacity:1;fill-rule:nonzero;stroke:none"
         id="path134" /><path
         d="M 540,1894.55 H 505"
         style="fill:none;stroke:#000000;stroke-width:8;stroke-linecap:butt;stroke-linejoin:round;stroke-miterlimit:10;stroke-dasharray:none;stroke-opacity:1"
         id="path136" /><g
         id="g138"
         transform="scale(10)"><text
           transform="matrix(1,0,0,-1,25.9063,185.658)"
           style="font-variant:normal;font-weight:normal;font-size:10px;font-family:Arial;-inkscape-font-specification:Arial;writing-mode:lr-tb;fill:#000000;fill-opacity:1;fill-rule:nonzero;stroke:none"
           id="text142"><tspan
             x="0 8.3789043 14.741404"
             y="0"
             sodipodi:role="line"
             id="tspan140">−20</tspan></text></g><path
         d="M 540,2285.43 H 505"
         style="fill:#000000;fill-opacity:1;fill-rule:nonzero;stroke:none"
         id="path144" /><path
         d="M 540,2285.43 H 505"
         style="fill:none;stroke:#000000;stroke-width:8;stroke-linecap:butt;stroke-linejoin:round;stroke-miterlimit:10;stroke-dasharray:none;stroke-opacity:1"
         id="path146" /><g
         id="g148"
         transform="scale(10)"><text
           transform="matrix(1,0,0,-1,25.9063,224.746)"
           style="font-variant:normal;font-weight:normal;font-size:10px;font-family:Arial;-inkscape-font-specification:Arial;writing-mode:lr-tb;fill:#000000;fill-opacity:1;fill-rule:nonzero;stroke:none"
           id="text152"><tspan
             x="0 8.3789043 14.741404"
             y="0"
             sodipodi:role="line"
             id="tspan150">−15</tspan></text><text
           transform="matrix(0,1,1,0,18.5313,107.72)"
           style="font-variant:normal;font-weight:normal;font-size:14px;font-family:Arial;-inkscape-font-specification:Arial;writing-mode:lr-tb;fill:#000000;fill-opacity:1;fill-rule:nonzero;stroke:none"
           id="text156"><tspan
             x="0 5.4894528 14.362498 23.235544"
             y="0"
             sodipodi:role="line"
             id="tspan154">tnuc</tspan></text><text
           transform="matrix(0,1,1,0,20.82818,138.6528)"
           style="font-variant:normal;font-weight:normal;font-size:9.8px;font-family:Arial;-inkscape-font-specification:Arial;writing-mode:lr-tb;fill:#000000;fill-opacity:1;fill-rule:nonzero;stroke:none"
           id="text160"><tspan
             x="0"
             y="0"
             id="tspan158">n</tspan></text><text
           transform="matrix(0,1,1,0,18.5313,149.69694)"
           style="font-variant:normal;font-weight:normal;font-size:14px;font-family:Arial;-inkscape-font-specification:Arial;writing-mode:lr-tb;fill:#000000;fill-opacity:1;fill-rule:nonzero;stroke:none"
           id="text164"><tspan
             x="0"
             y="0"
             id="tspan162">(</tspan></text><text
           transform="matrix(0,1,1,0,13.17192,157.20205)"
           style="font-variant:normal;font-weight:normal;font-size:9.8px;font-family:Arial;-inkscape-font-specification:Arial;writing-mode:lr-tb;fill:#000000;fill-opacity:1;fill-rule:nonzero;stroke:none"
           id="text168"><tspan
             x="0"
             y="0"
             id="tspan166">∘</tspan></text><text
           transform="matrix(0,1,1,0,18.5313,165.62861)"
           style="font-variant:normal;font-weight:normal;font-size:14px;font-family:Arial;-inkscape-font-specification:Arial;writing-mode:lr-tb;fill:#000000;fill-opacity:1;fill-rule:nonzero;stroke:none"
           id="text172"><tspan
             x="0 9.7753935"
             y="0"
             sodipodi:role="line"
             id="tspan170">C∘</tspan></text></g><g
         id="g174"><g
           id="g176"
           clip-path="url(#clipPath180)"><path
             d="m 937.59,476.234 37.648,3.09 -187.425,-14.222 -95.629,-6.266 249.425,17.723 188.931,17.019 -191.028,-17.191 188.868,16.972 116.71,12.586 76.35,9.321 91.36,12.519 105.37,16.664 113.03,21.215 125.41,28.859 132.46,38.856 127.67,49.164 117.1,59.949 116.85,80.871 124.75,121.008 142.21,201.309 152.65,298.51 148.04,308.84 126.19,212.01 127.79,153.44 114.99,97.56 101.28,63.9 72.05,36.44 76.31,32.36 69.63,25.11 63.15,19.81 88.63,23.95 77.46,17.95 -118.34,-28.49 -95.8,-28.25 -65.06,-22.6 -35.92,-13.91 -32.62,-13.64 -38.65,-17.55 -85.27,-45.08 -90.68,-60.15 -97.72,-84.01 -98.2,-111.7 -80.86,-118.07 -66.81,-117.11 -61.69,-122.2 -165.45,-349.21 -43.96,-84.87 -39.7,-70.59 -35.29,-57.5 -32.52,-48.57 -31.73,-43.427 -22.95,-29.082 -24.12,-28.582 -42.39,-45.66 -37.17,-35.707 -16.84,-14.973 10.13,8.926"
             style="fill:none;stroke:#1f77b4;stroke-width:15;stroke-linecap:square;stroke-linejoin:round;stroke-miterlimit:10;stroke-dasharray:none;stroke-opacity:1"
             id="path182" /><path
             d="M 2697.99,360 V 2534.4"
             style="fill:none;stroke:#000000;stroke-width:15;stroke-linecap:butt;stroke-linejoin:round;stroke-miterlimit:10;stroke-dasharray:15, 24.75;stroke-dashoffset:0;stroke-opacity:1"
             id="path184" /></g></g><path
         d="M 540,360 V 2534.4"
         style="fill:none;stroke:#000000;stroke-width:8;stroke-linecap:square;stroke-linejoin:miter;stroke-miterlimit:10;stroke-dasharray:none;stroke-opacity:1"
         id="path186" /><path
         d="M 3888,360 V 2534.4"
         style="fill:none;stroke:#000000;stroke-width:8;stroke-linecap:square;stroke-linejoin:miter;stroke-miterlimit:10;stroke-dasharray:none;stroke-opacity:1"
         id="path188" /><path
         d="M 540,360 H 3888"
         style="fill:none;stroke:#000000;stroke-width:8;stroke-linecap:square;stroke-linejoin:miter;stroke-miterlimit:10;stroke-dasharray:none;stroke-opacity:1"
         id="path190" /><path
         d="M 540,2534.4 H 3888"
         style="fill:none;stroke:#000000;stroke-width:8;stroke-linecap:square;stroke-linejoin:miter;stroke-miterlimit:10;stroke-dasharray:none;stroke-opacity:1"
         id="path192" /></g></g></svg>
